<svg width="30" height="30" viewBox="0 0 30 30" fill="none" xmlns="http://www.w3.org/2000/svg">
<path d="M30 15C30 17.9667 29.1203 20.8668 27.472 23.3335C25.8238 25.8003 23.4811 27.7229 20.7403 28.8582C17.9994 29.9935 14.9834 30.2906 12.0736 29.7118C9.16393 29.133 6.49119 27.7044 4.3934 25.6066C2.29562 23.5088 0.867006 20.8361 0.288227 17.9263C-0.290551 15.0166 0.00649937 12.0006 1.14181 9.25975C2.27713 6.51886 4.19971 4.17618 6.66645 2.52796C9.13319 0.879735 12.0333 1.19699e-07 15 1.19699e-07C16.9699 -0.000248746 18.9206 0.387568 20.7405 1.1413C22.5605 1.89503 24.2142 2.99991 25.6072 4.39284C27.0001 5.78577 28.105 7.43946 28.8587 9.25945C29.6124 11.0794 30.0002 13.0301 30 15ZM16.8776 22.7378C16.8776 22.362 16.7662 21.9947 16.5575 21.6822C16.3487 21.3697 16.0521 21.1262 15.7049 20.9823C15.3578 20.8384 14.9758 20.8006 14.6072 20.8738C14.2386 20.947 13.9 21.1278 13.6342 21.3934C13.3684 21.6589 13.1872 21.9974 13.1137 22.3659C13.0401 22.7344 13.0775 23.1164 13.221 23.4637C13.3646 23.811 13.6079 24.1079 13.9201 24.3169C14.2324 24.526 14.5996 24.6377 14.9754 24.6381C15.2251 24.6384 15.4724 24.5894 15.7032 24.494C15.934 24.3986 16.1437 24.2587 16.3203 24.0822C16.497 23.9057 16.6372 23.6961 16.7328 23.4654C16.8284 23.2348 16.8776 22.9875 16.8776 22.7378ZM13.4994 17.3626C13.5132 17.7511 13.6773 18.1191 13.957 18.3891C14.2367 18.659 14.6103 18.8099 14.9991 18.8099C15.3878 18.8099 15.7614 18.659 16.0411 18.3891C16.3208 18.1191 16.4849 17.7511 16.4987 17.3626V5.48693C16.4849 5.09843 16.3208 4.73045 16.0411 4.46049C15.7614 4.19054 15.3878 4.03967 14.9991 4.03967C14.6103 4.03967 14.2367 4.19054 13.957 4.46049C13.6773 4.73045 13.5132 5.09843 13.4994 5.48693V17.3626Z" fill="#842029"/>
</svg>
