<svg width="30" height="30" viewBox="0 0 30 30" fill="none" xmlns="http://www.w3.org/2000/svg">
<path d="M14.9995 0C6.71637 0 0 6.7159 0 14.9995C0 23.2832 6.71637 29.9991 14.9995 29.9991C23.2846 29.9991 30 23.2832 30 14.9995C30 6.71584 23.2846 0 14.9995 0ZM17.6333 21.8859C17.0266 22.5593 16.6788 22.9595 16.0239 23.5856C15.0326 24.5334 13.9071 24.7858 13.032 23.8502C11.7741 22.5049 13.0934 18.4124 13.1255 18.2575C13.3618 17.1697 13.8333 14.9957 13.8333 14.9957C13.8333 14.9957 12.8146 15.6194 12.2098 15.8406C11.7637 16.0036 11.2591 15.7896 11.1343 15.3581C11.0181 14.9584 11.1107 14.7042 11.3555 14.4311C11.9621 13.7582 12.3099 13.358 12.9649 12.7319C13.9571 11.7836 15.0817 11.5317 15.9568 12.4668C17.2147 13.8121 16.2866 16.0253 15.9606 17.5936C15.9285 17.749 15.1554 21.3217 15.1554 21.3217C15.1554 21.3217 16.1742 20.698 16.779 20.4764C17.2259 20.3139 17.7306 20.5284 17.8553 20.9593C17.9716 21.3591 17.8781 21.6133 17.6333 21.8859ZM16.006 10.3192C14.6064 10.4421 13.3731 9.40729 13.2503 8.00672C13.1284 6.60762 14.1632 5.37387 15.5628 5.25199C16.9614 5.12912 18.1956 6.16488 18.3176 7.56398C18.4404 8.96315 17.4046 10.1974 16.006 10.3192Z" fill="#065161"/>
</svg>
