<svg width="29" height="27" viewBox="0 0 29 27" fill="none" xmlns="http://www.w3.org/2000/svg">
<path d="M16.2493 1.03473C16.0538 0.718388 15.7807 0.457265 15.4559 0.276165C15.1312 0.0950647 14.7655 0 14.3936 0C14.0218 0 13.6561 0.0950647 13.3313 0.276165C13.0065 0.457265 12.7335 0.718388 12.538 1.03473L0.288003 23.2122C0.0995802 23.5246 0 23.8824 0 24.2472C0 24.612 0.0995802 24.9699 0.288003 25.2822C0.484896 25.5912 0.759293 25.8432 1.08387 26.0132C1.40845 26.1832 1.77189 26.2651 2.138 26.251H26.6055C26.9724 26.2658 27.3368 26.1841 27.6623 26.0141C27.9878 25.8442 28.263 25.5918 28.4605 25.2822C28.6488 24.97 28.7487 24.6124 28.7493 24.2477C28.75 23.8831 28.6515 23.5252 28.4643 23.2122L16.2493 1.03473ZM13.7555 8.75098H15.0055V17.501H13.7555V8.75098ZM14.3805 21.876C14.1333 21.876 13.8916 21.8027 13.686 21.6653C13.4805 21.528 13.3203 21.3327 13.2257 21.1043C13.131 20.8759 13.1063 20.6246 13.1545 20.3821C13.2028 20.1396 13.3218 19.9169 13.4966 19.7421C13.6714 19.5673 13.8942 19.4482 14.1366 19.4C14.3791 19.3518 14.6304 19.3765 14.8589 19.4711C15.0873 19.5657 15.2825 19.726 15.4198 19.9315C15.5572 20.1371 15.6305 20.3788 15.6305 20.626C15.6298 20.9573 15.4979 21.2749 15.2637 21.5091C15.0294 21.7434 14.7118 21.8753 14.3805 21.876Z" fill="#664D03"/>
</svg>
